<svg width="24" height="24" viewBox="0 0 24 24" fill="none" xmlns="http://www.w3.org/2000/svg">
<circle cx="12" cy="12" r="11.5" fill="#D9D9D9" fill-opacity="0.25" stroke="white"/>
<path d="M19.7971 11.1066L19.3094 10.7612C18.8624 10.4361 18.3138 10.2736 17.7754 10.2837L14.6871 10.3853L12.96 5.9763C12.8483 5.68169 12.5638 5.49883 12.259 5.49883L11.3854 5.49883C11.2838 5.49883 11.2228 5.5801 11.233 5.67153L12.0559 10.4768L7.9008 10.6291L6.91537 9.0545C6.85442 8.95291 6.73251 8.89195 6.6106 8.89195L5.87915 8.89195C5.77756 8.89195 5.70645 8.98338 5.72676 9.08497L6.37694 11.6247C6.3871 11.6755 6.3871 11.7365 6.37694 11.7873L5.72676 14.327C5.70645 14.4286 5.77756 14.5201 5.87915 14.5201L6.6106 14.5201C6.73251 14.5201 6.84426 14.449 6.91537 14.3575L7.9008 12.7829L12.0559 12.9353L11.233 17.7405C11.2228 17.8319 11.2939 17.9234 11.3854 17.9132H12.259C12.5638 17.9132 12.8584 17.7202 12.96 17.4357L14.6871 13.0267L17.7856 13.1384C18.3443 13.1486 18.8726 12.9861 19.3196 12.661L19.8072 12.3156C20.2136 12.0108 20.2136 11.4012 19.7971 11.1066Z" fill="white"/>
</svg>
