<svg width="35" height="36" viewBox="0 0 35 36" fill="none" xmlns="http://www.w3.org/2000/svg">
<path d="M5.12451 22.375H8.75012C9.52367 22.375 10.2655 22.0677 10.8125 21.5207C11.3595 20.9737 11.6668 20.2319 11.6668 19.4583V16.5416C11.6668 15.7681 11.9741 15.0262 12.5211 14.4793C13.068 13.9323 13.8099 13.625 14.5835 13.625H17.5001C18.2737 13.625 19.0155 13.3177 19.5625 12.7707C20.1095 12.2237 20.4168 11.4819 20.4168 10.7083V5.20264" stroke="white" stroke-width="2.1875" stroke-linecap="round" stroke-linejoin="round"/>
<path d="M25.1562 28.9375C28.9656 28.9375 29.9005 24.1969 32.0833 22.9373C31.2886 21.8484 30.2455 20.9648 29.0408 20.3598C27.836 19.7548 26.5043 19.446 25.1562 19.4589" stroke="white" stroke-width="2.1875" stroke-linecap="round" stroke-linejoin="round"/>
<path d="M25.1571 28.9377C23.9 28.9377 22.6945 28.4383 21.8057 27.5495C20.9168 26.6606 20.4175 25.4551 20.4175 24.1981C20.4175 22.9411 20.9168 21.7355 21.8057 20.8467C22.6945 19.9578 23.9 19.4585 25.1571 19.4585" stroke="white" stroke-width="2.1875" stroke-linecap="round" stroke-linejoin="round"/>
<path d="M25.506 23.8574C24.1698 24.081 22.8958 24.5841 21.7673 25.3339C20.6388 26.0836 19.6814 27.0632 18.9575 28.2085" stroke="white" stroke-width="2.1875" stroke-linecap="round" stroke-linejoin="round"/>
<path d="M30.2885 15.0833C29.768 12.7964 28.6439 10.6909 27.0334 8.98591C25.4229 7.28091 23.3848 6.03879 21.1313 5.38884C18.8778 4.7389 16.4912 4.7049 14.2201 5.29039C11.949 5.87588 9.8763 7.05944 8.21787 8.71787C6.55944 10.3763 5.37588 12.449 4.79039 14.7201C4.2049 16.9912 4.2389 19.3778 4.88884 21.6313C5.53879 23.8848 6.78091 25.9229 8.48591 27.5334C10.1909 29.1439 12.2964 30.268 14.5833 30.7885" stroke="white" stroke-width="2.1875" stroke-linecap="round" stroke-linejoin="round"/>
</svg>
